<?xml version="1.0" encoding="UTF-8"?><svg id="Icons" xmlns="http://www.w3.org/2000/svg" width="96" height="96" viewBox="0 0 96 96"><defs><style>.cls-1{fill:#ff5460;stroke-width:0px;}</style></defs><path class="cls-1" d="m82.5,41.17h-7.5v8.25l6.73-1.68c.65-.15,1.22-.54,1.64-1.05.41-.54.64-1.2.64-1.86v-2.16c0-.39-.16-.78-.44-1.05-.28-.3-.66-.45-1.06-.45Z"/><path class="cls-1" d="m13.5,41.17h7.5v8.25l-6.73-1.68c-.65-.15-1.22-.54-1.64-1.05-.41-.54-.64-1.2-.64-1.86v-2.16c0-.39.16-.78.44-1.05.28-.3.66-.45,1.06-.45Z"/><path class="cls-1" d="m27.13,53.6c1.75.95,3.19,2.22,4.19,3.76.11.2.17.42.15.65,0,.2-.07.42-.19.59-.12.2-.31.33-.53.43-.2.13-.44.16-.69.16h-8.71v-7.13c2.05.1,4.04.62,5.79,1.54Z"/><path class="cls-1" d="m69.21,53.6c-1.75.95-3.19,2.22-4.19,3.76-.11.2-.17.42-.15.65,0,.2.07.42.19.59.12.2.31.33.53.43.2.13.44.16.69.16h8.71s0-7.13,0-7.13c-2.05.1-4.04.62-5.79,1.54Z"/><path class="cls-1" d="m47.88,57.55h.12-.24.12c-4.13-.34-8.17-1.61-11.88-3.73-.44-.41-.8-.92-1.04-1.54-.25-.58-.37-1.23-.37-1.88.21-1.03,1.17-.96,2.31-.96h21.96c1.14,0,2.1,0,2.31.96,0,.65-.12,1.3-.37,1.88-.24.62-.6,1.13-1.04,1.54-3.71,2.12-7.75,3.39-11.88,3.73Z"/><rect class="cls-1" x="20.96" y="62.92" width="54.03" height="4.5"/><rect class="cls-1" x="20.96" y="41.54" width="54.03" height="4.5"/><path class="cls-1" d="m73.44,75.13h-3.75c-2.1,0-3.81-1.71-3.81-3.81v-5.84h4.5v5.14h2.36v-28.28l-7.44-16.97H30.69l-7.44,17.02v28.23h2.4v-4.37h4.5v5.06c0,2.1-1.71,3.81-3.81,3.81h-3.77c-1.96,0-3.58-1.49-3.78-3.39l-.04-.14v-30.14l8.11-18.55c.54-1.23,1.75-2.03,3.1-2.03h36.08c1.34,0,2.56.79,3.1,2.02l8.11,18.5v29.92c0,2.1-1.71,3.81-3.81,3.81Z"/><rect class="cls-1" x="22.68" y="65.48" width="4.29" height="6.72"/><rect class="cls-1" x="69.26" y="65.48" width="4.84" height="6.72"/></svg>