<?xml version="1.0" encoding="UTF-8"?><svg id="Icons" xmlns="http://www.w3.org/2000/svg" width="96" height="96" viewBox="0 0 96 96"><defs><style>.cls-1{fill:#ff5460;stroke-width:0px;}</style></defs><path class="cls-1" d="m48,51.37c-10.86,0-19.69-8.83-19.69-19.69s8.83-19.69,19.69-19.69,19.69,8.83,19.69,19.69-8.83,19.69-19.69,19.69Zm0-34.88c-8.37,0-15.19,6.81-15.19,15.19s6.81,15.19,15.19,15.19,15.19-6.81,15.19-15.19-6.81-15.19-15.19-15.19Z"/><path class="cls-1" d="m74.66,84h-4.5v-6.98c0-6.45-5.25-11.7-11.7-11.7h-20.92c-6.45,0-11.7,5.25-11.7,11.7v6.98h-4.5v-6.98c0-8.93,7.27-16.2,16.2-16.2h20.92c8.93,0,16.2,7.27,16.2,16.2v6.98Z"/><polygon class="cls-1" points="41.03 63.41 45.15 69.46 45.15 84 50.85 84 50.85 69.46 54.97 63.41 41.03 63.41"/></svg>