<?xml version="1.0" encoding="UTF-8"?><svg id="Icons" xmlns="http://www.w3.org/2000/svg" width="96" height="96" viewBox="0 0 96 96"><defs><style>.cls-1{fill:#ff5460;stroke-width:0px;}</style></defs><path class="cls-1" d="m47.98,68.87h-7.25v-4.5h7.25c1.76,0,3.19-1.43,3.19-3.19s-1.43-3.19-3.19-3.19h-14.5c-4.24,0-7.69-3.45-7.69-7.69s3.45-7.69,7.69-7.69h7.25v4.5h-7.25c-1.76,0-3.19,1.43-3.19,3.19s1.43,3.19,3.19,3.19h14.5c4.24,0,7.69,3.45,7.69,7.69s-3.45,7.69-7.69,7.69Z"/><rect class="cls-1" x="28.04" y="64.37" width="12.69" height="4.5"/><rect class="cls-1" x="38.48" y="66.62" width="4.5" height="7.75"/><rect class="cls-1" x="40.73" y="42.6" width="12.7" height="4.5"/><rect class="cls-1" x="38.48" y="37.1" width="4.5" height="7.75"/><path class="cls-1" d="m63.7,84H17.77c-1.24,0-2.25-1.01-2.25-2.25V29.72c0-1.24,1.01-2.25,2.25-2.25h45.94c1.24,0,2.25,1.01,2.25,2.25v52.03c0,1.24-1.01,2.25-2.25,2.25Zm-43.69-4.5h41.44V31.97H20.02v47.53Z"/><path class="cls-1" d="m78.23,68.53h-14.53v-4.5h12.28V16.5h-41.44v12.75h-4.5v-15c0-1.24,1.01-2.25,2.25-2.25h45.94c1.24,0,2.25,1.01,2.25,2.25v52.03c0,1.24-1.01,2.25-2.25,2.25Z"/></svg>