<?xml version="1.0" encoding="UTF-8"?><svg id="Icons" xmlns="http://www.w3.org/2000/svg" width="96" height="96" viewBox="0 0 96 96"><defs><style>.cls-1{fill:#ff5460;stroke-width:0px;}</style></defs><path class="cls-1" d="m67.75,43.51c-8.96,0-16.25-7.29-16.25-16.25s7.29-16.25,16.25-16.25,16.25,7.29,16.25,16.25-7.29,16.25-16.25,16.25Zm0-28c-6.48,0-11.75,5.27-11.75,11.75s5.27,11.75,11.75,11.75,11.75-5.27,11.75-11.75-5.27-11.75-11.75-11.75Zm7.78,15.56h-10.03v-11.58h4.5v7.08h5.53v4.5Z"/><path class="cls-1" d="m44.97,39.88l23.98,15.14v5.99l-23.98-7.58v16.07l8.99,5.01v4.5l-13.49-3-13.49,3v-4.5l8.99-5.01v-16.07l-23.98,7.58v-5.99l23.98-15.14v-16.34c0-1.2.48-2.34,1.32-3.18.84-.84,1.98-1.32,3.18-1.32s2.34.48,3.18,1.32c.84.84,1.32,1.98,1.32,3.18v16.34Z"/></svg>