<?xml version="1.0" encoding="UTF-8"?><svg id="Icons" xmlns="http://www.w3.org/2000/svg" width="96" height="96" viewBox="0 0 96 96"><defs><style>.cls-1{fill:#ff5460;stroke-width:0px;}</style></defs><path class="cls-1" d="m48,66.55c-15.06,0-27.31-12.24-27.31-27.28s12.25-27.28,27.31-27.28,27.31,12.24,27.31,27.28-12.25,27.28-27.31,27.28Zm0-50.05c-12.58,0-22.81,10.22-22.81,22.78s10.23,22.78,22.81,22.78,22.81-10.22,22.81-22.78-10.23-22.78-22.81-22.78Z"/><path class="cls-1" d="m34.23,84c-.44,0-.88-.11-1.28-.33-.83-.46-1.35-1.34-1.35-2.29v-21.4h4.5v18.04l11.93-7.37,11.93,7.37v-18.04h4.5v21.4c0,.95-.52,1.83-1.35,2.29-.83.46-1.85.44-2.66-.06l-12.42-7.68-12.42,7.68c-.42.26-.9.39-1.38.39Z"/></svg>