<?xml version="1.0" encoding="UTF-8"?><svg id="Icons" xmlns="http://www.w3.org/2000/svg" width="96" height="96" viewBox="0 0 96 96"><defs><style>.cls-1{fill:#ff5460;stroke-width:0px;}</style></defs><polygon class="cls-1" points="44.03 60.74 31.75 48.7 34.9 45.49 44.03 54.44 61.1 37.71 64.25 40.93 44.03 60.74"/><path class="cls-1" d="m48,85.06l-25.85-20.22c-2.12-1.72-3.33-4.27-3.33-7V21.94c0-1.48.99-2.82,2.42-3.24l.12-.03,26.64-6.27,26.76,6.3c1.42.42,2.42,1.75,2.42,3.24v35.9c0,2.73-1.22,5.28-3.33,7l-.03.03-25.81,20.19Zm-23.02-23.72l23.02,18.01,23.02-18.01c1.05-.86,1.66-2.14,1.66-3.5V22.83l-24.68-5.81-24.68,5.81v35.01c0,1.36.6,2.64,1.66,3.5Z"/></svg>