<?xml version="1.0" encoding="UTF-8"?><svg id="Icons" xmlns="http://www.w3.org/2000/svg" width="96" height="96" viewBox="0 0 96 96"><defs><style>.cls-1{fill:#ff5460;stroke-width:0px;}</style></defs><path class="cls-1" d="m41.91,80.85c-.42-.04-.85-.08-1.27-.14-2.58-.33-5.1-.96-7.51-1.86l1.59-4.21c2.08.78,4.27,1.33,6.49,1.61.37.05.73.09,1.1.12l-.4,4.48Zm7.84-.23l-.67-4.45c2.57-.39,5.09-1.13,7.47-2.2l1.85,4.1c-2.76,1.24-5.66,2.1-8.65,2.55Zm-23.58-5.39c-2.49-1.7-4.73-3.74-6.68-6.05l3.45-2.89c1.68,2,3.62,3.76,5.77,5.23l-2.54,3.71Zm38.94-1.19l-2.76-3.56c2.06-1.6,3.9-3.47,5.45-5.56l3.61,2.68c-1.8,2.42-3.92,4.59-6.3,6.44Zm-49.92-11.41c-1.35-2.71-2.32-5.58-2.88-8.54l4.42-.84c.49,2.56,1.32,5.04,2.49,7.37l-4.03,2.01Zm60.11-1.84l-4.15-1.75c1.01-2.39,1.69-4.92,2.02-7.52l4.46.57c-.38,3.01-1.17,5.93-2.34,8.7Zm-59.03-14.3l-4.49-.23c.04-.84.12-1.7.23-2.55.27-2.15.76-4.27,1.44-6.31l4.27,1.42c-.59,1.76-1,3.59-1.24,5.45-.09.73-.16,1.47-.2,2.2Zm4.33-13.78l-3.81-2.39c1.6-2.55,3.55-4.87,5.79-6.91l3.02,3.33c-1.94,1.76-3.62,3.76-5,5.97Zm44.63-4.83c-1.83-1.87-3.9-3.47-6.16-4.77l2.24-3.9c2.61,1.5,5.01,3.36,7.13,5.52l-3.21,3.15Zm-34.1-5.07l-2.16-3.95c2.65-1.45,5.49-2.53,8.42-3.21l1.01,4.39c-2.54.58-4.98,1.52-7.27,2.77Zm21.72-2.35c-1.43-.42-2.91-.72-4.4-.91-1.1-.14-2.21-.22-3.31-.23l.05-4.5c1.27.02,2.56.11,3.82.27,1.72.22,3.43.57,5.09,1.06l-1.26,4.32Z"/><polygon class="cls-1" points="75.43 46.37 63.09 38.42 65.52 34.64 74.08 40.15 79.6 31.58 83.38 34.02 75.43 46.37"/><path class="cls-1" d="m72.93,42.67c-.88-4.72-2.94-9.17-5.96-12.86-1.7-2.08-3.7-3.92-5.94-5.46-4.87-3.35-10.55-5.09-16.45-5.04l-.04-4.5c6.81-.06,13.41,1.95,19.04,5.83,2.59,1.78,4.9,3.91,6.87,6.32,3.5,4.28,5.88,9.43,6.9,14.89l-4.42.82Z"/><polygon class="cls-1" points="62.01 50.71 42.62 50.71 42.62 27.89 47.12 27.89 47.12 46.21 62.01 46.21 62.01 50.71"/></svg>